<mxfile host="app.diagrams.net" agent="Mozilla/5.0 (Windows NT 10.0; Win64; x64) AppleWebKit/537.36 (KHTML, like Gecko) Chrome/129.0.0.0 Safari/537.36" version="24.7.16">
  <diagram name="Page-1" id="2a216829-ef6e-dabb-86c1-c78162f3ba2b">
    <mxGraphModel dx="1105" dy="558" grid="1" gridSize="10" guides="1" tooltips="1" connect="1" arrows="1" fold="1" page="1" pageScale="1" pageWidth="850" pageHeight="1100" background="none" math="0" shadow="0">
      <root>
        <mxCell id="0" />
        <mxCell id="1" parent="0" />
        <mxCell id="T00dslBi2b2i00kKxEPh-1" value="Придбання квитка через інтернет-касу" style="swimlane;horizontal=0;whiteSpace=wrap;html=1;" vertex="1" parent="1">
          <mxGeometry x="120" y="300" width="1260" height="630" as="geometry" />
        </mxCell>
        <mxCell id="T00dslBi2b2i00kKxEPh-2" value="Компанія" style="swimlane;horizontal=0;whiteSpace=wrap;html=1;" vertex="1" parent="T00dslBi2b2i00kKxEPh-1">
          <mxGeometry x="20" y="270" width="1240" height="360" as="geometry" />
        </mxCell>
        <mxCell id="T00dslBi2b2i00kKxEPh-3" value="" style="ellipse;whiteSpace=wrap;html=1;aspect=fixed;strokeWidth=4;" vertex="1" parent="T00dslBi2b2i00kKxEPh-2">
          <mxGeometry x="900" y="220" width="40" height="40" as="geometry" />
        </mxCell>
        <mxCell id="T00dslBi2b2i00kKxEPh-4" style="edgeStyle=orthogonalEdgeStyle;rounded=0;orthogonalLoop=1;jettySize=auto;html=1;exitX=1;exitY=0.5;exitDx=0;exitDy=0;" edge="1" parent="T00dslBi2b2i00kKxEPh-2" source="T00dslBi2b2i00kKxEPh-5" target="T00dslBi2b2i00kKxEPh-6">
          <mxGeometry relative="1" as="geometry" />
        </mxCell>
        <mxCell id="T00dslBi2b2i00kKxEPh-5" value="Зробити оплату" style="rounded=1;whiteSpace=wrap;html=1;" vertex="1" parent="T00dslBi2b2i00kKxEPh-2">
          <mxGeometry x="640" y="95" width="120" height="60" as="geometry" />
        </mxCell>
        <mxCell id="T00dslBi2b2i00kKxEPh-6" value="" style="rhombus;whiteSpace=wrap;html=1;" vertex="1" parent="T00dslBi2b2i00kKxEPh-2">
          <mxGeometry x="830" y="150" width="60" height="60" as="geometry" />
        </mxCell>
        <mxCell id="T00dslBi2b2i00kKxEPh-7" value="Чи успішно&amp;nbsp;&lt;div&gt;пройшла оплата?&lt;/div&gt;" style="text;html=1;align=center;verticalAlign=middle;resizable=0;points=[];autosize=1;strokeColor=none;fillColor=none;" vertex="1" parent="T00dslBi2b2i00kKxEPh-2">
          <mxGeometry x="860" y="135" width="120" height="40" as="geometry" />
        </mxCell>
        <mxCell id="T00dslBi2b2i00kKxEPh-8" value="" style="endArrow=classic;html=1;rounded=0;exitX=0.5;exitY=1;exitDx=0;exitDy=0;entryX=0;entryY=0.5;entryDx=0;entryDy=0;" edge="1" parent="T00dslBi2b2i00kKxEPh-2" source="T00dslBi2b2i00kKxEPh-6" target="T00dslBi2b2i00kKxEPh-3">
          <mxGeometry width="50" height="50" relative="1" as="geometry">
            <mxPoint x="1530" y="170" as="sourcePoint" />
            <mxPoint x="1390" y="330" as="targetPoint" />
            <Array as="points">
              <mxPoint x="860" y="240" />
            </Array>
          </mxGeometry>
        </mxCell>
        <mxCell id="T00dslBi2b2i00kKxEPh-9" value="Ні" style="edgeLabel;html=1;align=center;verticalAlign=middle;resizable=0;points=[];" vertex="1" connectable="0" parent="T00dslBi2b2i00kKxEPh-8">
          <mxGeometry x="-0.7329" relative="1" as="geometry">
            <mxPoint as="offset" />
          </mxGeometry>
        </mxCell>
        <mxCell id="T00dslBi2b2i00kKxEPh-11" value="" style="endArrow=classic;html=1;rounded=0;exitX=0.5;exitY=0;exitDx=0;exitDy=0;" edge="1" parent="T00dslBi2b2i00kKxEPh-2" source="T00dslBi2b2i00kKxEPh-6" target="T00dslBi2b2i00kKxEPh-57">
          <mxGeometry width="50" height="50" relative="1" as="geometry">
            <mxPoint x="1380" y="230" as="sourcePoint" />
            <mxPoint x="1230" y="100" as="targetPoint" />
            <Array as="points">
              <mxPoint x="860" y="105" />
            </Array>
          </mxGeometry>
        </mxCell>
        <mxCell id="T00dslBi2b2i00kKxEPh-12" value="&lt;div&gt;&lt;br&gt;&lt;/div&gt;" style="edgeLabel;html=1;align=center;verticalAlign=middle;resizable=0;points=[];" vertex="1" connectable="0" parent="T00dslBi2b2i00kKxEPh-11">
          <mxGeometry x="-0.6057" y="-1" relative="1" as="geometry">
            <mxPoint as="offset" />
          </mxGeometry>
        </mxCell>
        <mxCell id="T00dslBi2b2i00kKxEPh-13" value="Так" style="edgeLabel;html=1;align=center;verticalAlign=middle;resizable=0;points=[];" vertex="1" connectable="0" parent="T00dslBi2b2i00kKxEPh-11">
          <mxGeometry x="-0.8535" y="3" relative="1" as="geometry">
            <mxPoint as="offset" />
          </mxGeometry>
        </mxCell>
        <mxCell id="T00dslBi2b2i00kKxEPh-41" value="" style="points=[[0.25,0.25,0],[0.5,0,0],[0.75,0.25,0],[1,0.5,0],[0.75,0.75,0],[0.5,1,0],[0.25,0.75,0],[0,0.5,0]];shape=mxgraph.bpmn.gateway2;html=1;verticalLabelPosition=bottom;labelBackgroundColor=#ffffff;verticalAlign=top;align=center;perimeter=rhombusPerimeter;outlineConnect=0;outline=none;symbol=none;gwType=parallel;" vertex="1" parent="T00dslBi2b2i00kKxEPh-2">
          <mxGeometry x="970" y="280" width="50" height="50" as="geometry" />
        </mxCell>
        <mxCell id="T00dslBi2b2i00kKxEPh-67" style="edgeStyle=orthogonalEdgeStyle;rounded=0;orthogonalLoop=1;jettySize=auto;html=1;entryX=0.5;entryY=0;entryDx=0;entryDy=0;" edge="1" parent="T00dslBi2b2i00kKxEPh-2" source="T00dslBi2b2i00kKxEPh-30" target="T00dslBi2b2i00kKxEPh-5">
          <mxGeometry relative="1" as="geometry" />
        </mxCell>
        <mxCell id="T00dslBi2b2i00kKxEPh-30" value="Відправити дані на сервер компанії" style="rounded=1;whiteSpace=wrap;html=1;" vertex="1" parent="T00dslBi2b2i00kKxEPh-2">
          <mxGeometry x="650" y="10" width="100" height="50" as="geometry" />
        </mxCell>
        <mxCell id="T00dslBi2b2i00kKxEPh-57" value="" style="points=[[0.145,0.145,0],[0.5,0,0],[0.855,0.145,0],[1,0.5,0],[0.855,0.855,0],[0.5,1,0],[0.145,0.855,0],[0,0.5,0]];shape=mxgraph.bpmn.event;html=1;verticalLabelPosition=bottom;labelBackgroundColor=#ffffff;verticalAlign=top;align=center;perimeter=ellipsePerimeter;outlineConnect=0;aspect=fixed;outline=throwing;symbol=message;" vertex="1" parent="T00dslBi2b2i00kKxEPh-2">
          <mxGeometry x="970" y="80" width="50" height="50" as="geometry" />
        </mxCell>
        <mxCell id="T00dslBi2b2i00kKxEPh-58" value="Генерація квитка" style="text;html=1;align=center;verticalAlign=middle;resizable=0;points=[];autosize=1;strokeColor=none;fillColor=none;" vertex="1" parent="T00dslBi2b2i00kKxEPh-2">
          <mxGeometry x="935" y="60" width="120" height="30" as="geometry" />
        </mxCell>
        <mxCell id="T00dslBi2b2i00kKxEPh-60" style="edgeStyle=orthogonalEdgeStyle;rounded=0;orthogonalLoop=1;jettySize=auto;html=1;exitX=0.5;exitY=1;exitDx=0;exitDy=0;exitPerimeter=0;entryX=0.5;entryY=0;entryDx=0;entryDy=0;entryPerimeter=0;dashed=1;" edge="1" parent="T00dslBi2b2i00kKxEPh-2" source="T00dslBi2b2i00kKxEPh-57" target="T00dslBi2b2i00kKxEPh-41">
          <mxGeometry relative="1" as="geometry" />
        </mxCell>
        <mxCell id="T00dslBi2b2i00kKxEPh-68" style="edgeStyle=orthogonalEdgeStyle;rounded=0;orthogonalLoop=1;jettySize=auto;html=1;exitX=0.5;exitY=0;exitDx=0;exitDy=0;exitPerimeter=0;entryX=0;entryY=0.5;entryDx=0;entryDy=0;dashed=1;" edge="1" parent="T00dslBi2b2i00kKxEPh-2" source="T00dslBi2b2i00kKxEPh-63" target="T00dslBi2b2i00kKxEPh-5">
          <mxGeometry relative="1" as="geometry" />
        </mxCell>
        <mxCell id="T00dslBi2b2i00kKxEPh-63" value="" style="points=[[0.25,0.25,0],[0.5,0,0],[0.75,0.25,0],[1,0.5,0],[0.75,0.75,0],[0.5,1,0],[0.25,0.75,0],[0,0.5,0]];shape=mxgraph.bpmn.gateway2;html=1;verticalLabelPosition=bottom;labelBackgroundColor=#ffffff;verticalAlign=top;align=center;perimeter=rhombusPerimeter;outlineConnect=0;outline=none;symbol=none;gwType=parallel;" vertex="1" parent="T00dslBi2b2i00kKxEPh-2">
          <mxGeometry x="210" y="150" width="50" height="50" as="geometry" />
        </mxCell>
        <mxCell id="T00dslBi2b2i00kKxEPh-69" style="edgeStyle=orthogonalEdgeStyle;rounded=0;orthogonalLoop=1;jettySize=auto;html=1;exitX=0.5;exitY=1;exitDx=0;exitDy=0;exitPerimeter=0;entryX=0;entryY=0.5;entryDx=0;entryDy=0;entryPerimeter=0;dashed=1;" edge="1" parent="T00dslBi2b2i00kKxEPh-2" source="T00dslBi2b2i00kKxEPh-63" target="T00dslBi2b2i00kKxEPh-41">
          <mxGeometry relative="1" as="geometry" />
        </mxCell>
        <mxCell id="T00dslBi2b2i00kKxEPh-73" value="&lt;span style=&quot;background-color: initial;&quot;&gt;Клієнти та їхні квитки&lt;/span&gt;" style="shape=cylinder3;whiteSpace=wrap;html=1;boundedLbl=1;backgroundOutline=1;size=15;" vertex="1" parent="T00dslBi2b2i00kKxEPh-2">
          <mxGeometry x="1070" y="260" width="70" height="90" as="geometry" />
        </mxCell>
        <mxCell id="T00dslBi2b2i00kKxEPh-74" style="edgeStyle=orthogonalEdgeStyle;rounded=0;orthogonalLoop=1;jettySize=auto;html=1;entryX=0;entryY=0.5;entryDx=0;entryDy=0;entryPerimeter=0;dashed=1;" edge="1" parent="T00dslBi2b2i00kKxEPh-2" source="T00dslBi2b2i00kKxEPh-41" target="T00dslBi2b2i00kKxEPh-73">
          <mxGeometry relative="1" as="geometry" />
        </mxCell>
        <mxCell id="T00dslBi2b2i00kKxEPh-82" value="" style="edgeStyle=orthogonalEdgeStyle;rounded=0;orthogonalLoop=1;jettySize=auto;html=1;exitX=1;exitY=0.5;exitDx=0;exitDy=0;exitPerimeter=0;" edge="1" parent="T00dslBi2b2i00kKxEPh-2" source="T00dslBi2b2i00kKxEPh-57" target="T00dslBi2b2i00kKxEPh-76">
          <mxGeometry relative="1" as="geometry">
            <mxPoint x="1620" y="674.6521739130435" as="targetPoint" />
            <mxPoint x="1160" y="675" as="sourcePoint" />
          </mxGeometry>
        </mxCell>
        <mxCell id="T00dslBi2b2i00kKxEPh-76" value="Відправити квиток на електрону пошту клієнта" style="rounded=1;whiteSpace=wrap;html=1;" vertex="1" parent="T00dslBi2b2i00kKxEPh-2">
          <mxGeometry x="1070" y="75" width="130" height="60" as="geometry" />
        </mxCell>
        <mxCell id="T00dslBi2b2i00kKxEPh-14" value="Клієнт" style="swimlane;horizontal=0;whiteSpace=wrap;html=1;startSize=23;" vertex="1" parent="T00dslBi2b2i00kKxEPh-1">
          <mxGeometry x="20" width="1240" height="270" as="geometry" />
        </mxCell>
        <mxCell id="T00dslBi2b2i00kKxEPh-16" value="" style="ellipse;whiteSpace=wrap;html=1;aspect=fixed;" vertex="1" parent="T00dslBi2b2i00kKxEPh-14">
          <mxGeometry x="30" y="130" width="40" height="40" as="geometry" />
        </mxCell>
        <mxCell id="T00dslBi2b2i00kKxEPh-17" value="Ввести дані" style="rounded=1;whiteSpace=wrap;html=1;" vertex="1" parent="T00dslBi2b2i00kKxEPh-14">
          <mxGeometry x="130" y="120" width="120" height="60" as="geometry" />
        </mxCell>
        <mxCell id="T00dslBi2b2i00kKxEPh-18" value="Дані про банківський рахунок клієнта&lt;span style=&quot;background-color: initial;&quot;&gt;; електронна пошта&lt;/span&gt;" style="shape=note;whiteSpace=wrap;html=1;backgroundOutline=1;darkOpacity=0.05;size=14;" vertex="1" parent="T00dslBi2b2i00kKxEPh-14">
          <mxGeometry x="150" y="210" width="80" height="100" as="geometry" />
        </mxCell>
        <mxCell id="T00dslBi2b2i00kKxEPh-19" value="" style="endArrow=classic;html=1;rounded=0;exitX=1;exitY=0.5;exitDx=0;exitDy=0;entryX=0;entryY=0.5;entryDx=0;entryDy=0;" edge="1" parent="T00dslBi2b2i00kKxEPh-14" source="T00dslBi2b2i00kKxEPh-16" target="T00dslBi2b2i00kKxEPh-17">
          <mxGeometry width="50" height="50" relative="1" as="geometry">
            <mxPoint x="510" y="480" as="sourcePoint" />
            <mxPoint x="120" y="360" as="targetPoint" />
          </mxGeometry>
        </mxCell>
        <mxCell id="T00dslBi2b2i00kKxEPh-20" value="Натиснути кнопку відправити" style="rounded=1;whiteSpace=wrap;html=1;" vertex="1" parent="T00dslBi2b2i00kKxEPh-14">
          <mxGeometry x="300" y="120" width="120" height="60" as="geometry" />
        </mxCell>
        <mxCell id="T00dslBi2b2i00kKxEPh-21" value="" style="endArrow=classic;html=1;rounded=0;exitX=1;exitY=0.5;exitDx=0;exitDy=0;" edge="1" parent="T00dslBi2b2i00kKxEPh-14" source="T00dslBi2b2i00kKxEPh-17" target="T00dslBi2b2i00kKxEPh-20">
          <mxGeometry width="50" height="50" relative="1" as="geometry">
            <mxPoint x="630" y="180" as="sourcePoint" />
            <mxPoint x="680" y="130" as="targetPoint" />
          </mxGeometry>
        </mxCell>
        <mxCell id="T00dslBi2b2i00kKxEPh-24" style="edgeStyle=orthogonalEdgeStyle;rounded=0;orthogonalLoop=1;jettySize=auto;html=1;exitX=0.5;exitY=0;exitDx=0;exitDy=0;entryX=0.5;entryY=1;entryDx=0;entryDy=0;" edge="1" parent="T00dslBi2b2i00kKxEPh-14" source="T00dslBi2b2i00kKxEPh-26" target="T00dslBi2b2i00kKxEPh-29">
          <mxGeometry relative="1" as="geometry" />
        </mxCell>
        <mxCell id="T00dslBi2b2i00kKxEPh-25" value="Ні" style="edgeLabel;html=1;align=center;verticalAlign=middle;resizable=0;points=[];" vertex="1" connectable="0" parent="T00dslBi2b2i00kKxEPh-24">
          <mxGeometry x="0.0024" y="3" relative="1" as="geometry">
            <mxPoint as="offset" />
          </mxGeometry>
        </mxCell>
        <mxCell id="T00dslBi2b2i00kKxEPh-47" style="edgeStyle=orthogonalEdgeStyle;rounded=0;orthogonalLoop=1;jettySize=auto;html=1;exitX=0.5;exitY=1;exitDx=0;exitDy=0;entryX=0;entryY=0.5;entryDx=0;entryDy=0;entryPerimeter=0;" edge="1" parent="T00dslBi2b2i00kKxEPh-14" source="T00dslBi2b2i00kKxEPh-26" target="T00dslBi2b2i00kKxEPh-45">
          <mxGeometry relative="1" as="geometry">
            <mxPoint x="540" y="200" as="sourcePoint" />
            <mxPoint x="560" y="265" as="targetPoint" />
            <Array as="points">
              <mxPoint x="490" y="205" />
            </Array>
          </mxGeometry>
        </mxCell>
        <mxCell id="T00dslBi2b2i00kKxEPh-54" value="Так" style="edgeLabel;html=1;align=center;verticalAlign=middle;resizable=0;points=[];" vertex="1" connectable="0" parent="T00dslBi2b2i00kKxEPh-47">
          <mxGeometry x="-0.6841" y="1" relative="1" as="geometry">
            <mxPoint as="offset" />
          </mxGeometry>
        </mxCell>
        <mxCell id="T00dslBi2b2i00kKxEPh-26" value="" style="rhombus;whiteSpace=wrap;html=1;" vertex="1" parent="T00dslBi2b2i00kKxEPh-14">
          <mxGeometry x="460" y="120" width="60" height="60" as="geometry" />
        </mxCell>
        <mxCell id="T00dslBi2b2i00kKxEPh-27" value="" style="endArrow=classic;html=1;rounded=0;exitX=1;exitY=0.5;exitDx=0;exitDy=0;" edge="1" parent="T00dslBi2b2i00kKxEPh-14" source="T00dslBi2b2i00kKxEPh-20" target="T00dslBi2b2i00kKxEPh-26">
          <mxGeometry width="50" height="50" relative="1" as="geometry">
            <mxPoint x="640" y="220" as="sourcePoint" />
            <mxPoint x="690" y="170" as="targetPoint" />
          </mxGeometry>
        </mxCell>
        <mxCell id="T00dslBi2b2i00kKxEPh-28" value="Чи всі поля&amp;nbsp;&lt;div&gt;заповнені?&lt;/div&gt;" style="text;html=1;align=center;verticalAlign=middle;resizable=0;points=[];autosize=1;strokeColor=none;fillColor=none;" vertex="1" parent="T00dslBi2b2i00kKxEPh-14">
          <mxGeometry x="500" y="105" width="90" height="40" as="geometry" />
        </mxCell>
        <mxCell id="T00dslBi2b2i00kKxEPh-29" value="" style="ellipse;whiteSpace=wrap;html=1;aspect=fixed;strokeWidth=3;" vertex="1" parent="T00dslBi2b2i00kKxEPh-14">
          <mxGeometry x="470" y="40" width="40" height="40" as="geometry" />
        </mxCell>
        <mxCell id="T00dslBi2b2i00kKxEPh-43" style="edgeStyle=orthogonalEdgeStyle;rounded=0;orthogonalLoop=1;jettySize=auto;html=1;exitX=0.5;exitY=1;exitDx=0;exitDy=0;entryX=0.5;entryY=0;entryDx=0;entryDy=0;entryPerimeter=0;dashed=1;" edge="1" parent="T00dslBi2b2i00kKxEPh-14" source="T00dslBi2b2i00kKxEPh-17" target="T00dslBi2b2i00kKxEPh-18">
          <mxGeometry relative="1" as="geometry" />
        </mxCell>
        <mxCell id="T00dslBi2b2i00kKxEPh-45" value="" style="points=[[0.145,0.145,0],[0.5,0,0],[0.855,0.145,0],[1,0.5,0],[0.855,0.855,0],[0.5,1,0],[0.145,0.855,0],[0,0.5,0]];shape=mxgraph.bpmn.event;html=1;verticalLabelPosition=bottom;labelBackgroundColor=#ffffff;verticalAlign=top;align=center;perimeter=ellipsePerimeter;outlineConnect=0;aspect=fixed;outline=standard;symbol=timer;" vertex="1" parent="T00dslBi2b2i00kKxEPh-14">
          <mxGeometry x="560" y="180" width="50" height="50" as="geometry" />
        </mxCell>
        <mxCell id="T00dslBi2b2i00kKxEPh-46" value="Підтвердження електронної&amp;nbsp;&lt;div&gt;пошти&lt;/div&gt;" style="text;html=1;align=center;verticalAlign=middle;resizable=0;points=[];autosize=1;strokeColor=none;fillColor=none;" vertex="1" parent="T00dslBi2b2i00kKxEPh-14">
          <mxGeometry x="500" y="223" width="180" height="40" as="geometry" />
        </mxCell>
        <mxCell id="T00dslBi2b2i00kKxEPh-55" style="edgeStyle=orthogonalEdgeStyle;rounded=0;orthogonalLoop=1;jettySize=auto;html=1;exitX=0.5;exitY=0;exitDx=0;exitDy=0;entryX=1;entryY=0.5;entryDx=0;entryDy=0;" edge="1" parent="T00dslBi2b2i00kKxEPh-14" source="T00dslBi2b2i00kKxEPh-49" target="T00dslBi2b2i00kKxEPh-29">
          <mxGeometry relative="1" as="geometry" />
        </mxCell>
        <mxCell id="T00dslBi2b2i00kKxEPh-56" value="Ні" style="edgeLabel;html=1;align=center;verticalAlign=middle;resizable=0;points=[];" vertex="1" connectable="0" parent="T00dslBi2b2i00kKxEPh-55">
          <mxGeometry x="-0.6357" y="-2" relative="1" as="geometry">
            <mxPoint as="offset" />
          </mxGeometry>
        </mxCell>
        <mxCell id="T00dslBi2b2i00kKxEPh-49" value="" style="rhombus;whiteSpace=wrap;html=1;" vertex="1" parent="T00dslBi2b2i00kKxEPh-14">
          <mxGeometry x="670" y="177.5" width="60" height="55" as="geometry" />
        </mxCell>
        <mxCell id="T00dslBi2b2i00kKxEPh-48" style="edgeStyle=orthogonalEdgeStyle;rounded=0;orthogonalLoop=1;jettySize=auto;html=1;exitX=1;exitY=0.5;exitDx=0;exitDy=0;exitPerimeter=0;" edge="1" parent="T00dslBi2b2i00kKxEPh-14" source="T00dslBi2b2i00kKxEPh-45">
          <mxGeometry relative="1" as="geometry">
            <mxPoint x="670" y="205" as="targetPoint" />
            <mxPoint x="620" y="265" as="sourcePoint" />
          </mxGeometry>
        </mxCell>
        <mxCell id="T00dslBi2b2i00kKxEPh-50" value="Чи дійсно це&amp;nbsp;&lt;div&gt;пошта клієнта&lt;/div&gt;" style="text;html=1;align=center;verticalAlign=middle;resizable=0;points=[];autosize=1;strokeColor=none;fillColor=none;" vertex="1" parent="T00dslBi2b2i00kKxEPh-14">
          <mxGeometry x="710" y="160" width="100" height="40" as="geometry" />
        </mxCell>
        <mxCell id="T00dslBi2b2i00kKxEPh-85" value="" style="ellipse;whiteSpace=wrap;html=1;aspect=fixed;strokeWidth=3;" vertex="1" parent="T00dslBi2b2i00kKxEPh-14">
          <mxGeometry x="1115" y="90" width="40" height="40" as="geometry" />
        </mxCell>
        <mxCell id="T00dslBi2b2i00kKxEPh-64" style="edgeStyle=orthogonalEdgeStyle;rounded=0;orthogonalLoop=1;jettySize=auto;html=1;exitX=0.5;exitY=1;exitDx=0;exitDy=0;exitPerimeter=0;entryX=0;entryY=0.5;entryDx=0;entryDy=0;entryPerimeter=0;dashed=1;" edge="1" parent="T00dslBi2b2i00kKxEPh-1" source="T00dslBi2b2i00kKxEPh-18" target="T00dslBi2b2i00kKxEPh-63">
          <mxGeometry relative="1" as="geometry" />
        </mxCell>
        <mxCell id="T00dslBi2b2i00kKxEPh-83" style="edgeStyle=orthogonalEdgeStyle;rounded=0;orthogonalLoop=1;jettySize=auto;html=1;" edge="1" parent="T00dslBi2b2i00kKxEPh-1" source="T00dslBi2b2i00kKxEPh-49" target="T00dslBi2b2i00kKxEPh-30">
          <mxGeometry relative="1" as="geometry" />
        </mxCell>
        <mxCell id="T00dslBi2b2i00kKxEPh-84" value="Так" style="edgeLabel;html=1;align=center;verticalAlign=middle;resizable=0;points=[];" vertex="1" connectable="0" parent="T00dslBi2b2i00kKxEPh-83">
          <mxGeometry x="-0.2696" y="-2" relative="1" as="geometry">
            <mxPoint as="offset" />
          </mxGeometry>
        </mxCell>
        <mxCell id="T00dslBi2b2i00kKxEPh-86" style="edgeStyle=orthogonalEdgeStyle;rounded=0;orthogonalLoop=1;jettySize=auto;html=1;entryX=0.5;entryY=1;entryDx=0;entryDy=0;" edge="1" parent="T00dslBi2b2i00kKxEPh-1" source="T00dslBi2b2i00kKxEPh-76" target="T00dslBi2b2i00kKxEPh-85">
          <mxGeometry relative="1" as="geometry" />
        </mxCell>
      </root>
    </mxGraphModel>
  </diagram>
</mxfile>
